<svg width="237" height="86" viewBox="0 0 237 86" fill="none" xmlns="http://www.w3.org/2000/svg">
<path d="M226.66 25.8V26.8H227.66H235.26V34.4V43V51.6V59.2H227.66H226.66V60.2V67.8H219.06H218.06V68.8V76.4H210.46H209.46V77.4V85H201.86H43.2197H34.6197H27.0197V77.4V76.4H26.0197H18.4197V68.8V67.8H17.4197H9.81973V60.2V59.2H8.81973H1.21973V51.6V43V34.4V26.8H8.81973H9.81973V25.8V18.2H17.4197H18.4197V17.2V9.6H26.0197H27.0197V8.6V1H34.6197H43.2197H201.86H209.46V8.6V9.6H210.46H218.06V17.2V18.2H219.06H226.66V25.8Z" stroke="black" stroke-width="2"/>
</svg>
