<svg width="88" height="97" viewBox="0 0 88 97" fill="none" xmlns="http://www.w3.org/2000/svg">
<path d="M36.318 0H13.9688V5.70588H18.1592V9.98529H22.3497V15.6912H18.1592V42.7941H22.3497V48.5H18.1592V61.3382H23.7465V67.0441H36.318V71.3235V81.3088H32.1275V85.5882H23.7465V91.2941H13.9688V97H23.7465H32.1275V91.2941H36.318V85.5882H41.9053V71.3235H51.683V67.0441H65.6513V62.7647H51.683H36.318V61.3382V48.5V42.7941V15.6912V9.98529H69.8418V5.70588H36.318V0Z" fill="#FFC700"/>
<path d="M4.19048 9.98535H0V48.5001H4.19048V9.98535Z" fill="#FFC700"/>
<path d="M83.8096 14.2646H79.6191V42.7941H83.8096V14.2646Z" fill="#FFC700"/>
<path d="M74.0317 0H36.3174V5.70588H74.0317V0Z" fill="#FAFF03"/>
<path d="M69.8412 9.98535H36.3174V62.7648H69.8412V48.5001H83.8095H87.9999V14.2648V9.98535H69.8412ZM83.8095 42.7942H69.8412V14.2648H83.8095V42.7942Z" fill="#FAFF03"/>
<path d="M4.19043 15.6912V42.7942V48.5001H22.3492V42.7942H8.38091V15.6912H22.3492V9.98535H4.19043V15.6912Z" fill="#FAFF03"/>
<path d="M65.6508 85.5882H55.873V81.3088H51.6825V71.3235H41.9047V81.3088V85.5882H36.3174V91.2941H32.127V97H74.0317V91.2941H65.6508V85.5882Z" fill="#FAFF03"/>
</svg>
